# xmcd
#
# Track frame offsets:
#	150
#	23645
#	53044
#	81822
#	104598
#	144701
#	183607
#	214444
#
# Disc length: 3586 seconds
#
# Revision: 1
# Processed by: cddbd v1.5.1PL2 Copyright (c) Steve Scherf et al.
# Submitted via: EasyCDDAExtractor 8.0.2.1
#
DISCID=730e0008
DTITLE=Deep Purple - Intersport Arena Linz 21-02-06 Disc 2
DYEAR=2006
DGENRE=Hard Rock
TTITLE0=Don Airey Solo
TTITLE1=Perfect Strangers
TTITLE2=Junkyard Blues
TTITLE3=Space Truckin'
TTITLE4=Highway Star
TTITLE5=Smoke On The Water
TTITLE6=Hush
TTITLE7=Black Night
EXTD=
EXTT0=
EXTT1=
EXTT2=
EXTT3=
EXTT4=
EXTT5=
EXTT6=
EXTT7=
PLAYORDER=
